<svg width="16" height="16" viewBox="0 0 16 16" fill="none" xmlns="http://www.w3.org/2000/svg">
<g clip-path="url(#clip0_59_283)">
<path d="M8.04201 0C3.62401 0 0.0420074 3.582 0.0420074 8C0.0420074 12.418 3.62401 16 8.04201 16C12.46 16 16.042 12.418 16.042 8C16.042 3.582 12.46 0 8.04201 0ZM11.748 5.787L7.91601 11.644C7.91501 11.645 7.91301 11.646 7.91301 11.647C7.89301 11.677 7.88201 11.711 7.85701 11.739C7.82201 11.777 7.77701 11.797 7.73701 11.826C7.72701 11.833 7.71701 11.841 7.70601 11.848C7.64401 11.887 7.58001 11.913 7.51001 11.93C7.48701 11.936 7.46601 11.942 7.44201 11.946C7.38631 11.9537 7.32987 11.9543 7.27401 11.948C7.23455 11.9455 7.19539 11.9395 7.15701 11.93C7.1174 11.9181 7.07892 11.9027 7.04201 11.884C7.01001 11.869 6.97601 11.865 6.94601 11.846C6.92401 11.832 6.91201 11.81 6.89301 11.793C6.88501 11.786 6.87501 11.784 6.86701 11.777L4.63601 9.714C4.50377 9.58702 4.42662 9.41323 4.42115 9.22998C4.41567 9.04672 4.48231 8.86864 4.60674 8.73399C4.73117 8.59935 4.90345 8.51889 5.08657 8.50992C5.26968 8.50095 5.44901 8.56417 5.58601 8.686L7.20101 10.18L10.576 5.021C10.6776 4.86558 10.8367 4.75688 11.0185 4.71881C11.2002 4.68074 11.3896 4.71642 11.545 4.818C11.7004 4.91958 11.8091 5.07873 11.8472 5.26046C11.8853 5.44218 11.8496 5.63158 11.748 5.787Z" fill="#7595AC"/>
</g>
<defs>
<clipPath id="clip0_59_283">
<rect width="16" height="16" fill="white"/>
</clipPath>
</defs>
</svg>
