<svg width="16" height="16" fill="none" xmlns="http://www.w3.org/2000/svg"><g clip-path="url('#clip0_59_283')"><path d="M8.042 0a8 8 0 1 0 0 16 8 8 0 0 0 0-16Zm3.706 5.787-3.832 5.857-.003.003c-.02.03-.031.064-.056.092-.035.038-.08.058-.12.087l-.031.022a.648.648 0 0 1-.196.082c-.023.006-.044.012-.068.016a.675.675 0 0 1-.168.002.66.66 0 0 1-.117-.018.7.7 0 0 1-.115-.046c-.032-.015-.066-.019-.096-.038-.022-.014-.034-.036-.053-.053-.008-.007-.018-.009-.026-.016L4.636 9.714a.7.7 0 0 1 .95-1.028l1.615 1.494 3.375-5.159a.7.7 0 1 1 1.172.766Z" fill="#7595AC"/></g><defs><clipPath id="clip0_59_283"><path fill="#fff" d="M0 0h16v16H0z"/></clipPath></defs></svg>